<?xml version="1.0" encoding="UTF-8"?>
<svg id="Calque_1" data-name="Calque 1" xmlns="http://www.w3.org/2000/svg" viewBox="0 0 230.11 325.43">
  <defs>
    <style>
      .cls-1 {
        fill: #ee7088;
        stroke-width: 0px;
      }
    </style>
  </defs>
  <path class="cls-1" d="M170.77,205.84l-13.76-21.43v-61.04c0-3.68-2.65-6.67-5.93-6.67-.24,0-.47.05-.7.08-.23-.03-.46-.08-.7-.08h-21.67c-1.21,0-2.19-1.1-2.19-2.46v-3.13c0-1.11.67-2.05,1.61-2.36,14.81-4.94,25.28-21.19,23.43-39.88-1.69-17.02-13.92-30.77-29.05-32.66-19.95-2.49-36.84,15-36.84,36.93,0,16.84,9.98,31.04,23.64,35.6.95.32,1.61,1.26,1.61,2.37v3.12c0,1.36-.98,2.46-2.19,2.46h-21.67c-.24,0-.46.05-.7.08-.23-.03-.46-.08-.7-.08-3.27,0-5.93,2.99-5.93,6.67v56.65l-14.04,26.3c-2.54,4.76,1.42,10.22,7.42,10.22h21.14v63.59c0,4.32,2.57,8.28,6.33,9.13,5.13,1.16,9.63-3.23,9.63-8.79v-57.22c0-2.91,2.1-5.27,4.69-5.27h7.79c2.59,0,4.69,2.36,4.69,5.27v57.22c0,4.96,3.57,8.98,7.98,8.98s7.98-4.02,7.98-8.98v-63.93h20.96c6.26,0,10.21-5.91,7.14-10.7ZM145.15,135.18v30.76l-2.48-3.87v-26.89h2.48ZM90.91,135.18h2.66v17.63l-2.66,4.98v-22.61Z"/>
</svg>