<?xml version="1.0" encoding="UTF-8"?>
<svg id="Calque_1" data-name="Calque 1" xmlns="http://www.w3.org/2000/svg" viewBox="0 0 230.11 325.43">
  <defs>
    <style>
      .cls-1 {
        fill: #4a4898;
        stroke-width: 0px;
      }
    </style>
  </defs>
  <path class="cls-1" d="M152.22,116.7c-.27,0-.52.05-.78.08-.26-.03-.52-.08-.78-.08h-24.37c-1.36,0-2.46-1.1-2.46-2.46v-3.13c0-1.11.75-2.05,1.81-2.36,16.65-4.94,28.44-21.19,26.35-39.88-1.9-17.02-15.65-30.77-32.67-32.66-22.44-2.49-41.43,15-41.43,36.93,0,16.84,11.22,31.04,26.58,35.6,1.06.32,1.82,1.26,1.82,2.37v3.12c0,1.36-1.1,2.46-2.46,2.46h-24.37c-.27,0-.52.05-.78.08-.26-.03-.52-.08-.78-.08-3.68,0-6.67,2.99-6.67,6.67v75.78c0,3.27,2.21,6.3,5.43,6.88,4.23.76,7.91-2.47,7.91-6.56v-64.3h2.99v144.95c0,4.32,2.89,8.28,7.12,9.13,5.77,1.16,10.83-3.23,10.83-8.79v-57.22c0-2.91,2.36-5.27,5.27-5.27h8.77c2.91,0,5.27,2.36,5.27,5.27v57.22c0,4.96,4.02,8.98,8.98,8.98h0c4.96,0,8.98-4.02,8.98-8.98v-75.36s0-24.48,0-24.48v-45.45h2.79v63.97c0,3.27,2.21,6.3,5.43,6.88,4.23.76,7.91-2.47,7.91-6.56v-76.11c0-3.68-2.99-6.67-6.67-6.67Z"/>
</svg>